<?xml version="1.0" encoding="utf-8"?>
<!-- Generator: Adobe Illustrator 27.5.0, SVG Export Plug-In . SVG Version: 6.00 Build 0)  -->
<svg version="1.1" id="Layer_1" xmlns="http://www.w3.org/2000/svg" xmlns:xlink="http://www.w3.org/1999/xlink" x="0px" y="0px"
	 viewBox="0 0 1200 1200" style="enable-background:new 0 0 1200 1200;" xml:space="preserve">
<style type="text/css">
	.st0{fill:#340BFF;}
	.st1{fill:#FFFFFF;}
</style>
<rect class="st0" width="1200" height="1200"/>
<g>
	<path class="st1" d="M150,641.95l22.04-30.93c13.47,14.03,34.36,25.77,60.71,25.77c22.34,0,33.22-10.31,33.22-21.19
		c0-33.79-109.97-10.6-109.97-82.47c0-31.79,27.49-58.13,72.44-58.13c30.37,0,55.57,9.16,74.46,26.63l-22.62,29.78
		c-15.46-14.32-36.08-20.9-55.56-20.9c-17.46,0-27.21,7.73-27.21,19.19c0,30.36,109.69,10.02,109.69,81.33
		c0,34.94-24.92,61.28-76.47,61.28C194.09,672.31,167.74,659.99,150,641.95z"/>
	<path class="st1" d="M419.07,668.87l-36.66-53.26l-16.61,17.75v35.51h-36.36V477.86h36.36v114.26l52.4-61.57h44.67l-54.69,62.71
		l56.42,75.6H419.07z"/>
	<path class="st1" d="M488.93,690.35c3.16,1.43,8.02,2.29,11.45,2.29c9.46,0,15.76-2.58,19.19-10.02l5.15-11.74L468.6,530.56h38.95
		l36.08,96.22l36.08-96.22h39.24l-65.01,160.94c-10.31,26.06-28.64,32.93-52.41,33.51c-4.29,0-13.45-0.86-18.03-2L488.93,690.35z"/>
	<path class="st1" d="M632.56,668.87V477.86h36.36v70.45c10.88-14.03,26.35-21.19,42.68-21.19c35.22,0,61.27,27.49,61.27,72.74
		c0,46.11-26.35,72.45-61.27,72.45c-16.62,0-31.79-7.45-42.68-21.19v17.75H632.56z M700.15,639.95c21.18,0,35.22-16.04,35.22-40.09
		c0-24.05-14.04-40.38-35.22-40.38c-11.75,0-25.2,6.87-31.22,16.04v48.97C674.95,633.36,688.4,639.95,700.15,639.95z"/>
	<path class="st1" d="M796.71,668.87V477.86h36.36v191.01H796.71z"/>
	<path class="st1" d="M855.59,599.57c0-40.09,29.49-72.45,71.59-72.45c41.24,0,69.3,30.93,69.3,76.17v8.02h-102.8
		c2.29,17.47,16.32,32.07,39.8,32.07c11.75,0,28.06-5.15,36.95-13.75l16.04,23.48c-13.75,12.6-35.51,19.19-56.99,19.19
		C887.37,672.31,855.59,643.96,855.59,599.57z M927.18,556.04c-22.63,0-32.35,16.9-34.08,30.64h68.17
		C960.4,573.51,951.23,556.04,927.18,556.04z"/>
	<path class="st1" d="M1003.62,648.83c0-12.6,10.59-23.2,23.19-23.2s23.19,10.6,23.19,23.2s-10.59,23.2-23.19,23.2
		S1003.62,661.43,1003.62,648.83z"/>
</g>
</svg>
